<?xml version="1.0" encoding="UTF-8"?>
<svg width="107px" height="42px" viewBox="0 0 107 42" version="1.1" xmlns="http://www.w3.org/2000/svg" xmlns:xlink="http://www.w3.org/1999/xlink">
    <!-- Generator: sketchtool 51.2 (57519) - http://www.bohemiancoding.com/sketch -->
    <title>7EE28B22-8BAC-4C8A-B9BF-5B74963C3D35</title>
    <desc>Created with sketchtool.</desc>
    <defs></defs>
    <g id="Website-Design" stroke="none" stroke-width="1" fill="none" fill-rule="evenodd">
        <g id="Responsive-design-how-it-works-3" transform="translate(-14.000000, -12.000000)" fill-rule="nonzero">
            <g id="Navigation" transform="translate(14.000000, 12.000000)">
                <g id="hyperpure-logo-top">
                    <path d="M69.0897849,33.4297297 L69.0322581,34.6783784 L65.6956989,38.2540541 C67.0763441,38.2540541 67.9967742,38.2540541 68.5145161,38.1972973 C68.3419355,38.8783784 68.2268817,39.4459459 68.111828,40.2972973 C67.4215054,40.2405405 66.3860215,40.2405405 65.3505376,40.2405405 C64.2,40.2405405 63.1645161,40.2405405 62.3016129,40.2972973 L62.3016129,38.9918919 L65.638172,35.4162162 C64.1424731,35.4162162 63.6247312,35.4162162 63.0494624,35.4162162 C63.1645161,34.7918919 63.2795699,34.0540541 63.3946237,33.372973 C64.4876344,33.4297297 64.8903226,33.4297297 66.2709677,33.4297297 C67.5365591,33.4864865 68.2844086,33.4297297 69.0897849,33.4297297 Z M71.505914,37.4027027 C71.505914,38.2540541 71.7935484,38.7081081 72.2537634,38.7081081 C72.8865591,38.7081081 73.4043011,37.6864865 73.4043011,36.4378378 C73.4043011,35.5864865 73.1166667,35.1324324 72.6564516,35.1324324 C72.0236559,35.1324324 71.505914,36.0972973 71.505914,37.4027027 Z M75.877957,36.2675676 C75.877957,38.5945946 74.2096774,40.5243243 72.0236559,40.5243243 C70.0677419,40.5243243 69.0322581,39.2189189 69.0322581,37.4594595 C69.0322581,35.1324324 70.7005376,33.2027027 72.8865591,33.2027027 C74.9,33.2594595 75.877957,34.5648649 75.877957,36.2675676 Z M102.340323,37.4027027 C102.340323,38.2540541 102.627957,38.7081081 103.088172,38.7081081 C103.720968,38.7081081 104.23871,37.6864865 104.23871,36.4378378 C104.23871,35.5864865 103.951075,35.1324324 103.49086,35.1324324 C102.858065,35.1324324 102.340323,36.0972973 102.340323,37.4027027 Z M106.827419,36.2675676 C106.827419,38.5945946 105.15914,40.5810811 102.915591,40.5810811 C100.902151,40.5810811 99.9241935,39.2189189 99.9241935,37.4594595 C99.9241935,35.1324324 101.592473,33.1459459 103.836022,33.1459459 C105.849462,33.1459459 106.827419,34.5081081 106.827419,36.2675676 Z M87.2107527,35.472973 C87.3833333,34.2810811 87.2682796,33.2027027 85.9451613,33.2027027 C84.9672043,33.2027027 83.9317204,33.9972973 83.183871,35.3594595 C83.3564516,34.2243243 83.2413978,33.2027027 81.9182796,33.2027027 C80.9403226,33.2027027 79.8473118,34.0540541 79.0994624,35.472973 C79.272043,34.5648649 79.272043,33.4864865 79.2145161,33.2594595 C78.4666667,33.372973 77.7763441,33.4297297 76.855914,33.4864865 C76.855914,34.1108108 76.855914,34.9621622 76.7408602,35.7567568 L76.4532258,37.8567568 C76.338172,38.7081081 76.2231183,39.6162162 76.0505376,40.2405405 L78.5817204,40.2405405 C78.5817204,39.9 78.6967742,39.3324324 78.7543011,38.8216216 L78.9844086,37.4027027 C79.1569892,36.4945946 79.9048387,35.3594595 80.4801075,35.3594595 C80.8252688,35.3594595 80.8252688,35.7 80.7102151,36.2675676 L80.4801075,37.9135135 C80.3650538,38.7648649 80.25,39.672973 80.0774194,40.2972973 L82.6086022,40.2972973 C82.6086022,39.9567568 82.7236559,39.3891892 82.7811828,38.8783784 L83.0112903,37.4594595 C83.183871,36.5513514 83.9317204,35.4162162 84.5069892,35.4162162 C84.8521505,35.4162162 84.8521505,35.7 84.7946237,36.1540541 L84.161828,40.3540541 L86.4629032,40.3540541 L87.2107527,35.472973 Z M99.3489247,38.3108108 L99.0612903,39.9567568 C98.6586022,40.1837838 97.8532258,40.5243243 96.9327957,40.5243243 C95.3795699,40.5243243 95.0919355,39.7297297 95.322043,37.9702703 L95.7247312,35.1891892 L94.9768817,35.1891892 L95.2069892,33.372973 L96.0123656,33.3162162 L96.3,32.0108108 L98.6586022,31.1594595 L98.3709677,33.3162162 L99.9817204,33.3162162 C99.9241935,33.5432432 99.7516129,34.7918919 99.694086,35.1324324 L98.1408602,35.1324324 L97.7956989,37.6864865 C97.6806452,38.3675676 97.738172,38.5945946 98.1983871,38.5945946 C98.5435484,38.6513514 99.0612903,38.4243243 99.3489247,38.3108108 Z M90.4897849,39.1054054 C91.3526882,38.9918919 91.927957,38.1972973 92.0430108,37.4027027 L92.0430108,37.1756757 C91.6978495,37.1189189 91.1225806,37.0054054 90.6623656,37.1189189 C90.2021505,37.1756757 89.7419355,37.4027027 89.5693548,37.6864865 C89.3967742,37.9135135 89.3392473,38.1405405 89.3392473,38.4243243 C89.4543011,38.8216216 89.9145161,39.1621622 90.4897849,39.1054054 Z M89.7994624,40.3540541 C88.5913978,40.5243243 87.7860215,40.0135135 87.555914,38.9351351 C87.3833333,38.2540541 87.6134409,37.5162162 87.9586022,37.0621622 C88.4188172,36.4378378 89.2241935,36.0972973 90.2021505,35.9837838 C90.95,35.8702703 91.6403226,35.927027 92.2155914,36.0405405 L92.2155914,35.927027 C92.2155914,35.7567568 92.2731183,35.5864865 92.2155914,35.4162162 C92.1580645,34.9054054 91.7553763,34.6216216 90.7198925,34.7351351 C90.0295699,34.7918919 89.3967742,35.0756757 88.8790323,35.3027027 L88.4188172,33.8837838 C89.1091398,33.4864865 89.972043,33.2027027 90.8924731,33.0891892 C92.7333333,32.8621622 94.0564516,33.4297297 94.2290323,34.7918919 C94.2865591,35.1324324 94.2865591,35.5297297 94.2290323,35.8702703 C93.9989247,37.5162162 93.8263441,38.7648649 93.7688172,39.6162162 C93.7688172,39.7297297 93.7688172,39.9567568 93.7688172,40.2972973 L91.4677419,40.2972973 C91.5252688,40.1837838 91.5827957,40.0135135 91.5827957,39.7864865 C91.5827957,39.6162162 91.6403226,39.4459459 91.6403226,39.2189189 C91.2951613,39.8432432 90.6048387,40.2405405 89.7994624,40.3540541 Z" id="Shape" fill="#010101"></path>
                    <path d="M50.3360215,39.3891892 L50.3360215,40.2972973 L49.4731183,40.2972973 L49.4731183,33.4297297 L50.3360215,33.4297297 L50.3360215,36.3243243 C50.7387097,35.7567568 51.3139785,35.3027027 52.1768817,35.3027027 C53.3274194,35.3027027 54.5354839,36.2108108 54.5354839,37.8567568 C54.5354839,39.4459459 53.3849462,40.4108108 52.1768817,40.4108108 C51.2564516,40.3540541 50.6811828,39.9 50.3360215,39.3891892 M53.6725806,37.8 C53.6725806,36.6648649 52.9247312,35.9837838 52.0043011,35.9837838 C51.1413978,35.9837838 50.3360215,36.7216216 50.3360215,37.8 C50.3360215,38.8783784 51.1413978,39.6162162 52.0043011,39.6162162 C52.9247312,39.6162162 53.6725806,38.9351351 53.6725806,37.8" id="Shape" fill="#010101"></path>
                    <path d="M59.3102151,35.3594595 L60.2306452,35.3594595 L58.1596774,40.4108108 C57.7569892,41.4324324 57.2967742,41.772973 56.4913978,41.772973 C56.0311828,41.772973 55.7435484,41.6594595 55.3983871,41.4891892 L55.6860215,40.8081081 C55.916129,40.9216216 56.1462366,40.9783784 56.433871,40.9783784 C56.8365591,40.9783784 57.1241935,40.7513514 57.3543011,40.1837838 L55.1682796,35.3027027 L56.0887097,35.3027027 L57.7569892,39.2756757 L59.3102151,35.3594595 Z" id="Shape" fill="#010101"></path>
                    <path d="M95.0344086,20.2054054 C95.0344086,16.6864865 97.5080645,13.8486486 101.074731,13.8486486 C104.986559,13.8486486 106.942473,16.8567568 106.942473,20.3756757 C106.942473,20.6027027 106.942473,20.8864865 106.942473,21.1135135 L97.7956989,21.1135135 C98.0833333,23.1567568 99.5790323,24.2918919 101.419892,24.2918919 C102.858065,24.2918919 103.836022,23.7810811 104.813978,22.8162162 L106.424731,24.2351351 C105.216667,25.5972973 103.605914,26.5054054 101.362366,26.5054054 C97.7956989,26.5054054 95.0344086,23.9513514 95.0344086,20.2054054 Z M104.23871,19.3540541 C104.008602,17.4810811 102.973118,16.0621622 101.017204,16.0621622 C99.233871,16.0621622 97.9682796,17.4243243 97.6806452,19.3540541 L104.23871,19.3540541 Z" id="Shape" fill="#5DBB5B"></path>
                    <path d="M86.8655914,14.0756757 L89.5693548,14.0756757 L89.5693548,16.8567568 C90.3747312,15.0405405 91.8704301,13.7351351 94.0564516,13.8486486 L94.0564516,16.6864865 L93.883871,16.6864865 C91.4102151,16.6864865 89.5693548,18.3324324 89.5693548,21.6243243 L89.5693548,26.2783784 L86.8655914,26.2783784 L86.8655914,14.0756757 Z" id="Shape" fill="#5DBB5B"></path>
                    <path d="M72.5989247,21.7945946 L72.5989247,14.0756757 L75.3026882,14.0756757 L75.3026882,21 C75.3026882,22.9297297 76.338172,24.0648649 78.0064516,24.0648649 C79.7322581,24.0648649 80.9403226,22.9297297 80.9403226,21 L80.9403226,14.0756757 L83.644086,14.0756757 L83.644086,26.2783784 L80.9403226,26.2783784 L80.9403226,24.3486486 C80.1349462,25.4837838 78.9844086,26.5054054 77.0284946,26.5054054 C74.2096774,26.5054054 72.5989247,24.6324324 72.5989247,21.7945946" id="Shape" fill="#5DBB5B"></path>
                    <path d="M57.411828,14.0756757 L60.1155914,14.0756757 L60.1155914,16.1756757 C61.0360215,14.8702703 62.3591398,13.8486486 64.3725806,13.8486486 C67.3064516,13.8486486 70.1252688,16.1189189 70.1252688,20.1486486 L70.1252688,20.2054054 C70.1252688,24.2351351 67.3064516,26.5054054 64.3725806,26.5054054 C62.3016129,26.5054054 60.9784946,25.4837838 60.1155914,24.3486486 L60.1155914,29.9675676 L57.411828,29.9675676 L57.411828,14.0756757 Z M67.4215054,20.1486486 C67.4215054,17.7081081 65.7532258,16.1189189 63.7973118,16.1189189 C61.8413978,16.1189189 60.1155914,17.7081081 60.1155914,20.0918919 L60.1155914,20.1486486 C60.1155914,22.5324324 61.8413978,24.1216216 63.7973118,24.1216216 C65.7532258,24.1783784 67.4215054,22.6459459 67.4215054,20.1486486 Z" id="Shape" fill="#5DBB5B"></path>
                    <path d="M49.2430108,14.5297297 L50.1634409,14.5297297 L50.1634409,17.9918919 C50.9688172,15.9486486 52.8672043,14.2459459 55.3408602,14.3027027 L55.3408602,15.3243243 L55.2258065,15.3243243 C52.4069892,15.3243243 50.1634409,17.7081081 50.1634409,21.0567568 L50.1634409,26.2216216 L49.2430108,26.2216216 L49.2430108,14.5297297 Z" id="Shape" fill="#010101"></path>
                    <path d="M35.033871,20.3756757 C35.033871,16.9135135 37.45,14.2459459 40.6715054,14.2459459 C44.1231183,14.2459459 46.1365591,17.0837838 46.1365591,20.3756757 L46.1365591,20.7162162 L36.0693548,20.7162162 C36.2419355,23.7810811 38.4854839,25.5972973 40.9591398,25.5972973 C42.8,25.5972973 44.1806452,24.6891892 45.1010753,23.6108108 L45.7913978,24.1783784 C44.6408602,25.4837838 43.1451613,26.4486486 40.9016129,26.4486486 C37.7376344,26.5054054 35.033871,24.0648649 35.033871,20.3756757 Z M45.1010753,19.9216216 C44.9284946,17.4810811 43.4903226,15.0972973 40.6139785,15.0972973 C38.0827957,15.0972973 36.1844086,17.1405405 36.011828,19.9216216 L45.1010753,19.9216216 Z" id="Shape" fill="#010101"></path>
                    <path d="M20.7096774,14.5297297 L21.6301075,14.5297297 L21.6301075,17.4243243 C22.5505376,15.6648649 24.2188172,14.2459459 26.6924731,14.2459459 C29.7413978,14.2459459 32.5026882,16.6864865 32.5026882,20.3756757 L32.5026882,20.4324324 C32.5026882,24.1216216 29.7413978,26.5621622 26.6924731,26.5621622 C24.2188172,26.5621622 22.5505376,25.1432432 21.6301075,23.4405405 L21.6301075,29.9675676 L20.7096774,29.9675676 L20.7096774,14.5297297 Z M31.5247312,20.4324324 C31.5247312,17.3108108 29.3387097,15.1540541 26.6349462,15.1540541 C23.9311828,15.1540541 21.5725806,17.3675676 21.5725806,20.3756757 L21.5725806,20.4324324 C21.5725806,23.4405405 23.9311828,25.6540541 26.6349462,25.6540541 C29.3962366,25.5972973 31.5247312,23.5540541 31.5247312,20.4324324 Z" id="Shape" fill="#010101"></path>
                    <path d="M6.55806452,4.42702703 C6.55806452,4.42702703 9.03172043,3.51891892 11.4478495,5.16486486 C13.7489247,6.6972973 13.9215054,9.36486486 13.9215054,9.36486486 C13.9215054,9.36486486 11.5629032,10.3297297 9.03172043,8.62702703 C6.73064516,7.09459459 6.55806452,4.42702703 6.55806452,4.42702703" id="Shape" fill="#5DBB5B"></path>
                    <path d="M30.0290323,0.283783784 C30.0290323,0.283783784 30.4317204,3.85945946 27.3827957,6.52702703 C24.4489247,9.08108108 20.8247312,8.4 20.8247312,8.4 C20.8247312,8.4 20.3645161,4.93783784 23.4709677,2.15675676 C26.3473118,-0.397297297 30.0290323,0.283783784 30.0290323,0.283783784" id="Shape" fill="#5DBB5B"></path>
                    <path d="M16.3951613,14.5297297 C16.3951613,14.472973 15.4172043,9.59189189 10.2397849,7.49189189 L10.5849462,6.64054054 C16.2801075,8.91081081 17.3155914,14.1324324 17.3155914,14.3594595 L16.3951613,14.5297297 Z" id="Shape" fill="#010101"></path>
                    <path d="M14.4392473,26.2216216 C14.094086,17.8783784 17.0854839,12.2594595 19.6741935,9.02432432 C22.4930108,5.50540541 25.3693548,3.91621622 25.4844086,3.85945946 L25.9446237,4.71081081 C25.8870968,4.71081081 23.0682796,6.24324324 20.422043,9.64864865 C17.9483871,12.7702703 15.072043,18.2189189 15.4172043,26.2216216 L14.4392473,26.2216216 Z M25.9446237,4.71081081 L25.7145161,4.31351351 L25.9446237,4.71081081 Z" id="Shape" fill="#010101"></path>
                    <path d="M0.0575268817,9.36486486 L0.977956989,9.36486486 L0.977956989,17.027027 C1.66827957,15.6081081 3.04892473,14.2459459 5.40752688,14.2459459 C8.45645161,14.2459459 10.2397849,16.2891892 10.2397849,19.2405405 L10.2397849,26.2216216 L9.26182796,26.2216216 L9.26182796,19.4108108 C9.26182796,16.8567568 7.82365591,15.0972973 5.29247312,15.0972973 C2.87634409,15.0972973 0.977956989,16.9702703 0.977956989,19.5243243 L0.977956989,26.2216216 L0.0575268817,26.2216216 L0.0575268817,9.36486486 Z" id="Shape" fill="#010101"></path>
                </g>
            </g>
        </g>
    </g>
</svg>