<?xml version="1.0" encoding="UTF-8"?>
<svg width="319px" height="126px" viewBox="0 0 319 126" version="1.1" xmlns="http://www.w3.org/2000/svg" xmlns:xlink="http://www.w3.org/1999/xlink">
    <!-- Generator: sketchtool 51.2 (57519) - http://www.bohemiancoding.com/sketch -->
    <title>8C0A4699-B848-48F9-AB95-B210FA84D5D4</title>
    <desc>Created with sketchtool.</desc>
    <defs></defs>
    <g id="Website-Design" stroke="none" stroke-width="1" fill="none" fill-rule="evenodd">
        <g id="Slider_7" transform="translate(-557.000000, -198.000000)" fill-rule="nonzero">
            <g id="Header">
                <g id="HEADER-INFO" transform="translate(376.000000, 198.000000)">
                    <g id="hyperpure-logo-slider" transform="translate(181.000000, 0.000000)">
                        <path d="M205.977957,100.289189 L205.806452,104.035135 L195.85914,114.762162 C199.975269,114.762162 202.719355,114.762162 204.262903,114.591892 C203.748387,116.635135 203.405376,118.337838 203.062366,120.891892 C201.004301,120.721622 197.917204,120.721622 194.830108,120.721622 C191.4,120.721622 188.312903,120.721622 185.740323,120.891892 L185.740323,116.975676 L195.687634,106.248649 C191.228495,106.248649 189.684946,106.248649 187.969892,106.248649 C188.312903,104.375676 188.655914,102.162162 188.998925,100.118919 C192.257527,100.289189 193.458065,100.289189 197.574194,100.289189 C201.347312,100.459459 203.576882,100.289189 205.977957,100.289189 Z M213.181183,112.208108 C213.181183,114.762162 214.03871,116.124324 215.410753,116.124324 C217.297312,116.124324 218.84086,113.059459 218.84086,109.313514 C218.84086,106.759459 217.983333,105.397297 216.61129,105.397297 C214.724731,105.397297 213.181183,108.291892 213.181183,112.208108 Z M226.215591,108.802703 C226.215591,115.783784 221.241935,121.572973 214.724731,121.572973 C208.893548,121.572973 205.806452,117.656757 205.806452,112.378378 C205.806452,105.397297 210.780108,99.6081081 217.297312,99.6081081 C223.3,99.7783784 226.215591,103.694595 226.215591,108.802703 Z M305.108065,112.208108 C305.108065,114.762162 305.965591,116.124324 307.337634,116.124324 C309.224194,116.124324 310.767742,113.059459 310.767742,109.313514 C310.767742,106.759459 309.910215,105.397297 308.538172,105.397297 C306.651613,105.397297 305.108065,108.291892 305.108065,112.208108 Z M318.485484,108.802703 C318.485484,115.783784 313.511828,121.743243 306.823118,121.743243 C300.82043,121.743243 297.904839,117.656757 297.904839,112.378378 C297.904839,105.397297 302.878495,99.4378378 309.567204,99.4378378 C315.569892,99.4378378 318.485484,103.524324 318.485484,108.802703 Z M260.002151,106.418919 C260.516667,102.843243 260.173656,99.6081081 256.229032,99.6081081 C253.313441,99.6081081 250.226344,101.991892 247.996774,106.078378 C248.51129,102.672973 248.16828,99.6081081 244.223656,99.6081081 C241.308065,99.6081081 238.049462,102.162162 235.819892,106.418919 C236.334409,103.694595 236.334409,100.459459 236.162903,99.7783784 C233.933333,100.118919 231.875269,100.289189 229.131183,100.459459 C229.131183,102.332432 229.131183,104.886486 228.788172,107.27027 L227.930645,113.57027 C227.587634,116.124324 227.244624,118.848649 226.730108,120.721622 L234.276344,120.721622 C234.276344,119.7 234.619355,117.997297 234.79086,116.464865 L235.476882,112.208108 C235.991398,109.483784 238.220968,106.078378 239.936022,106.078378 C240.965054,106.078378 240.965054,107.1 240.622043,108.802703 L239.936022,113.740541 C239.593011,116.294595 239.25,119.018919 238.735484,120.891892 L246.28172,120.891892 C246.28172,119.87027 246.624731,118.167568 246.796237,116.635135 L247.482258,112.378378 C247.996774,109.654054 250.226344,106.248649 251.941398,106.248649 C252.97043,106.248649 252.97043,107.1 252.798925,108.462162 L250.912366,121.062162 L257.772581,121.062162 L260.002151,106.418919 Z M296.189785,114.932432 L295.332258,119.87027 C294.13172,120.551351 291.730645,121.572973 288.986559,121.572973 C284.355914,121.572973 283.498387,119.189189 284.184409,113.910811 L285.384946,105.567568 L283.155376,105.567568 L283.841398,100.118919 L286.242473,99.9486486 L287.1,96.0324324 L294.13172,93.4783784 L293.274194,99.9486486 L298.076344,99.9486486 C297.904839,100.62973 297.390323,104.375676 297.218817,105.397297 L292.588172,105.397297 L291.55914,113.059459 C291.216129,115.102703 291.387634,115.783784 292.759677,115.783784 C293.78871,115.954054 295.332258,115.272973 296.189785,114.932432 Z M269.777957,117.316216 C272.350538,116.975676 274.065591,114.591892 274.408602,112.208108 L274.408602,111.527027 C273.37957,111.356757 271.664516,111.016216 270.292473,111.356757 C268.92043,111.527027 267.548387,112.208108 267.033871,113.059459 C266.519355,113.740541 266.347849,114.421622 266.347849,115.272973 C266.69086,116.464865 268.062903,117.486486 269.777957,117.316216 Z M267.719892,121.062162 C264.11828,121.572973 261.717204,120.040541 261.031183,116.805405 C260.516667,114.762162 261.202688,112.548649 262.23172,111.186486 C263.603763,109.313514 266.004839,108.291892 268.92043,107.951351 C271.15,107.610811 273.208065,107.781081 274.923118,108.121622 L274.923118,107.781081 C274.923118,107.27027 275.094624,106.759459 274.923118,106.248649 C274.751613,104.716216 273.551075,103.864865 270.463978,104.205405 C268.405914,104.375676 266.519355,105.227027 264.975806,105.908108 L263.603763,101.651351 C265.661828,100.459459 268.234409,99.6081081 270.978495,99.2675676 C276.466667,98.5864865 280.41129,100.289189 280.925806,104.375676 C281.097312,105.397297 281.097312,106.589189 280.925806,107.610811 C280.239785,112.548649 279.725269,116.294595 279.553763,118.848649 C279.553763,119.189189 279.553763,119.87027 279.553763,120.891892 L272.693548,120.891892 C272.865054,120.551351 273.036559,120.040541 273.036559,119.359459 C273.036559,118.848649 273.208065,118.337838 273.208065,117.656757 C272.179032,119.52973 270.120968,120.721622 267.719892,121.062162 Z" id="Shape" fill="#FFFFFF"></path>
                        <path d="M150.067204,118.167568 L150.067204,120.891892 L147.494624,120.891892 L147.494624,100.289189 L150.067204,100.289189 L150.067204,108.972973 C151.267742,107.27027 152.982796,105.908108 155.555376,105.908108 C158.985484,105.908108 162.587097,108.632432 162.587097,113.57027 C162.587097,118.337838 159.156989,121.232432 155.555376,121.232432 C152.81129,121.062162 151.096237,119.7 150.067204,118.167568 M160.014516,113.4 C160.014516,109.994595 157.784946,107.951351 155.04086,107.951351 C152.46828,107.951351 150.067204,110.164865 150.067204,113.4 C150.067204,116.635135 152.46828,118.848649 155.04086,118.848649 C157.784946,118.848649 160.014516,116.805405 160.014516,113.4" id="Shape" fill="#FFFFFF"></path>
                        <path d="M176.822043,106.078378 L179.566129,106.078378 L173.391935,121.232432 C172.191398,124.297297 170.819355,125.318919 168.41828,125.318919 C167.046237,125.318919 166.18871,124.978378 165.159677,124.467568 L166.017204,122.424324 C166.703226,122.764865 167.389247,122.935135 168.246774,122.935135 C169.447312,122.935135 170.304839,122.254054 170.99086,120.551351 L164.473656,105.908108 L167.217742,105.908108 L172.191398,117.827027 L176.822043,106.078378 Z" id="Shape" fill="#FFFFFF"></path>
                        <path d="M283.326882,60.6162162 C283.326882,50.0594595 290.701613,41.5459459 301.334946,41.5459459 C312.997312,41.5459459 318.828495,50.5702703 318.828495,61.127027 C318.828495,61.8081081 318.828495,62.6594595 318.828495,63.3405405 L291.55914,63.3405405 C292.416667,69.4702703 296.875806,72.8756757 302.363978,72.8756757 C306.651613,72.8756757 309.567204,71.3432432 312.482796,68.4486486 L317.284946,72.7054054 C313.683333,76.7918919 308.881183,79.5162162 302.192473,79.5162162 C291.55914,79.5162162 283.326882,71.8540541 283.326882,60.6162162 Z M310.767742,58.0621622 C310.08172,52.4432432 306.994624,48.1864865 301.163441,48.1864865 C295.846774,48.1864865 292.073656,52.272973 291.216129,58.0621622 L310.767742,58.0621622 Z" id="Shape" fill="#5DBB5B"></path>
                        <path d="M258.973118,42.227027 L267.033871,42.227027 L267.033871,50.5702703 C269.434946,45.1216216 273.894086,41.2054054 280.41129,41.5459459 L280.41129,50.0594595 L279.896774,50.0594595 C272.522043,50.0594595 267.033871,54.9972973 267.033871,64.872973 L267.033871,78.8351351 L258.973118,78.8351351 L258.973118,42.227027 Z" id="Shape" fill="#5DBB5B"></path>
                        <path d="M216.439785,65.3837838 L216.439785,42.227027 L224.500538,42.227027 L224.500538,63 C224.500538,68.7891892 227.587634,72.1945946 232.56129,72.1945946 C237.706452,72.1945946 241.308065,68.7891892 241.308065,63 L241.308065,42.227027 L249.368817,42.227027 L249.368817,78.8351351 L241.308065,78.8351351 L241.308065,73.0459459 C238.906989,76.4513514 235.476882,79.5162162 229.645699,79.5162162 C221.241935,79.5162162 216.439785,73.8972973 216.439785,65.3837838" id="Shape" fill="#5DBB5B"></path>
                        <path d="M171.162366,42.227027 L179.223118,42.227027 L179.223118,48.527027 C181.967204,44.6108108 185.911828,41.5459459 191.914516,41.5459459 C200.66129,41.5459459 209.065054,48.3567568 209.065054,60.4459459 L209.065054,60.6162162 C209.065054,72.7054054 200.66129,79.5162162 191.914516,79.5162162 C185.740323,79.5162162 181.795699,76.4513514 179.223118,73.0459459 L179.223118,89.9027027 L171.162366,89.9027027 L171.162366,42.227027 Z M201.004301,60.4459459 C201.004301,53.1243243 196.030645,48.3567568 190.199462,48.3567568 C184.36828,48.3567568 179.223118,53.1243243 179.223118,60.2756757 L179.223118,60.4459459 C179.223118,67.5972973 184.36828,72.3648649 190.199462,72.3648649 C196.030645,72.5351351 201.004301,67.9378378 201.004301,60.4459459 Z" id="Shape" fill="#5DBB5B"></path>
                        <path d="M146.808602,43.5891892 L149.552688,43.5891892 L149.552688,53.9756757 C151.953763,47.8459459 157.613441,42.7378378 164.988172,42.9081081 L164.988172,45.972973 L164.645161,45.972973 C156.241398,45.972973 149.552688,53.1243243 149.552688,63.1702703 L149.552688,78.6648649 L146.808602,78.6648649 L146.808602,43.5891892 Z" id="Shape" fill="#FFFFFF"></path>
                        <path d="M104.446774,61.127027 C104.446774,50.7405405 111.65,42.7378378 121.254301,42.7378378 C131.544624,42.7378378 137.547312,51.2513514 137.547312,61.127027 L137.547312,62.1486486 L107.533871,62.1486486 C108.048387,71.3432432 114.737097,76.7918919 122.111828,76.7918919 C127.6,76.7918919 131.716129,74.0675676 134.460215,70.8324324 L136.51828,72.5351351 C133.088172,76.4513514 128.629032,79.3459459 121.940323,79.3459459 C112.507527,79.5162162 104.446774,72.1945946 104.446774,61.127027 Z M134.460215,59.7648649 C133.945699,52.4432432 129.658065,45.2918919 121.082796,45.2918919 C113.536559,45.2918919 107.876882,51.4216216 107.362366,59.7648649 L134.460215,59.7648649 Z" id="Shape" fill="#FFFFFF"></path>
                        <path d="M61.7419355,43.5891892 L64.4860215,43.5891892 L64.4860215,52.272973 C67.2301075,46.9945946 72.2037634,42.7378378 79.5784946,42.7378378 C88.6682796,42.7378378 96.9005376,50.0594595 96.9005376,61.127027 L96.9005376,61.2972973 C96.9005376,72.3648649 88.6682796,79.6864865 79.5784946,79.6864865 C72.2037634,79.6864865 67.2301075,75.4297297 64.4860215,70.3216216 L64.4860215,89.9027027 L61.7419355,89.9027027 L61.7419355,43.5891892 Z M93.9849462,61.2972973 C93.9849462,51.9324324 87.4677419,45.4621622 79.4069892,45.4621622 C71.3462366,45.4621622 64.3145161,52.1027027 64.3145161,61.127027 L64.3145161,61.2972973 C64.3145161,70.3216216 71.3462366,76.9621622 79.4069892,76.9621622 C87.6392473,76.7918919 93.9849462,70.6621622 93.9849462,61.2972973 Z" id="Shape" fill="#FFFFFF"></path>
                        <path d="M19.5516129,13.2810811 C19.5516129,13.2810811 26.9263441,10.5567568 34.1295699,15.4945946 C40.9897849,20.0918919 41.5043011,28.0945946 41.5043011,28.0945946 C41.5043011,28.0945946 34.4725806,30.9891892 26.9263441,25.8810811 C20.066129,21.2837838 19.5516129,13.2810811 19.5516129,13.2810811" id="Shape" fill="#5DBB5B"></path>
                        <path d="M89.5258065,0.851351351 C89.5258065,0.851351351 90.7263441,11.5783784 81.6365591,19.5810811 C72.8897849,27.2432432 62.0849462,25.2 62.0849462,25.2 C62.0849462,25.2 60.7129032,14.8135135 69.9741935,6.47027027 C78.5494624,-1.19189189 89.5258065,0.851351351 89.5258065,0.851351351" id="Shape" fill="#5DBB5B"></path>
                        <path d="M48.8790323,43.5891892 C48.8790323,43.4189189 45.9634409,28.7756757 30.527957,22.4756757 L31.5569892,19.9216216 C48.5360215,26.7324324 51.6231183,42.3972973 51.6231183,43.0783784 L48.8790323,43.5891892 Z" id="Shape" fill="#FFFFFF"></path>
                        <path d="M43.0478495,78.6648649 C42.0188172,53.6351351 50.9370968,36.7783784 58.6548387,27.072973 C67.0586022,16.5162162 75.633871,11.7486486 75.9768817,11.5783784 L77.3489247,14.1324324 C77.1774194,14.1324324 68.7736559,18.7297297 60.8844086,28.9459459 C53.5096774,38.3108108 44.9344086,54.6567568 45.9634409,78.6648649 L43.0478495,78.6648649 Z M77.3489247,14.1324324 L76.6629032,12.9405405 L77.3489247,14.1324324 Z" id="Shape" fill="#FFFFFF"></path>
                        <path d="M0.171505376,28.0945946 L2.9155914,28.0945946 L2.9155914,51.0810811 C4.97365591,46.8243243 9.08978495,42.7378378 16.1215054,42.7378378 C25.2112903,42.7378378 30.527957,48.8675676 30.527957,57.7216216 L30.527957,78.6648649 L27.6123656,78.6648649 L27.6123656,58.2324324 C27.6123656,50.5702703 23.3247312,45.2918919 15.7784946,45.2918919 C8.57526882,45.2918919 2.9155914,50.9108108 2.9155914,58.572973 L2.9155914,78.6648649 L0.171505376,78.6648649 L0.171505376,28.0945946 Z" id="Shape" fill="#FFFFFF"></path>
                    </g>
                </g>
            </g>
        </g>
    </g>
</svg>